<svg xmlns="http://www.w3.org/2000/svg" xmlns:xlink="http://www.w3.org/1999/xlink" viewBox="0,0,256,256" width="32" height="32"><g fill="#ffffff" fill-rule="evenodd" stroke="none" stroke-width="1" stroke-linecap="butt" stroke-linejoin="miter" stroke-miterlimit="10" stroke-dasharray="" stroke-dashoffset="0" font-family="none" font-weight="none" font-size="none" text-anchor="none" style="mix-blend-mode: normal"><g transform="scale(5.12,5.12)"><path d="M40.92578,1.89063l-3.06641,0.52734l3.32813,18.20703l2.84375,-0.37109zM29.96875,6.35156l-2.86719,1.72656l10.19922,14.95703l2.51953,-1.55469zM20.79688,15.03125l-1.68359,2.67188l15.38672,9.29688l1.40234,-2.42187zM16.375,24.40234l-0.74609,3l17.73047,4.49219l0.28125,-2.69141zM9,29v18.98438l29.90234,0.01563v-0.01562c0.03125,0 0.09766,-18.98437 0.09766,-18.98437h-3v16h-24v-16zM15.15234,32.35547l-0.25,2.98438l18.09766,1.66016l0.20313,-2.5zM14.90234,39l0.09766,3l18,-0.07031v-2.92969z"></path></g></g></svg>